<?xml version="1.0" encoding="utf-8"?>
<!-- Uploaded to: SVG Repo, www.svgrepo.com, Generator: SVG Repo Mixer Tools -->
<svg fill="#000000" width="800px" height="800px" viewBox="0 0 32 32" version="1.1" xmlns="http://www.w3.org/2000/svg">
<title>book-bookmark</title>
<path d="M27.75 2c-0-0.414-0.336-0.75-0.75-0.75h-4.963c-0.020-0.002-0.037-0.012-0.058-0.012h-7.957c-0.021 0-0.038 0.010-0.058 0.012h-6.763c-0.028-0.001-0.061-0.002-0.094-0.002-1.541 0-2.797 1.22-2.856 2.746l-0 0.005v24.389c0.113 1.331 1.221 2.367 2.572 2.367 0.063 0 0.125-0.002 0.187-0.007l-0.008 0h20c0.414 0 0.75-0.336 0.75-0.75s-0.336-0.75-0.75-0.75v0h-19.8c-0.023 0.001-0.050 0.002-0.077 0.002-0.717 0-1.306-0.547-1.373-1.247l-0-0.006v-1.223c0-0.459 0.584-0.861 1.248-0.861l20.002 0.057c0 0 0.001 0 0.001 0 0.207 0 0.394-0.084 0.529-0.22l0-0c0.017-0.017 0.025-0.041 0.040-0.060 0.047-0.051 0.087-0.11 0.118-0.173l0.002-0.004c0.016-0.049 0.029-0.105 0.034-0.164l0-0.003c0.011-0.035 0.020-0.077 0.025-0.121l0-0.003v-0.002zM26.25 24.471l-15.5-0.044v-21.677h2.521v10.448c0 0 0 0 0 0.001 0 0.414 0.336 0.749 0.749 0.749 0.181 0 0.347-0.064 0.476-0.171l-0.001 0.001 3.51-2.869 3.504 2.804c0.127 0.102 0.29 0.164 0.468 0.164 0.414 0 0.75-0.336 0.751-0.75v-10.377h3.521zM21.229 2.75v8.816l-2.76-2.208c-0.127-0.103-0.29-0.165-0.468-0.165-0.181 0-0.347 0.064-0.477 0.172l0.001-0.001-2.754 2.252v-8.866zM5.75 24.686v-20.686c0.067-0.705 0.657-1.252 1.374-1.252 0.027 0 0.054 0.001 0.080 0.002l-0.004-0h2.050v21.672l-2.25-0.006c-0.453 0.002-0.883 0.101-1.269 0.278l0.019-0.008z"></path>
</svg>