<?xml version="1.0" encoding="utf-8"?>

<!DOCTYPE svg PUBLIC "-//W3C//DTD SVG 1.1//EN" "http://www.w3.org/Graphics/SVG/1.1/DTD/svg11.dtd">
<!-- Uploaded to: SVG Repo, www.svgrepo.com, Generator: SVG Repo Mixer Tools -->
<svg height="800px" width="800px" version="1.1" id="_x32_" xmlns="http://www.w3.org/2000/svg" xmlns:xlink="http://www.w3.org/1999/xlink" 
	 viewBox="0 0 512 512"  xml:space="preserve">
<style type="text/css">
	.st0{fill:#000000;}
</style>
<g>
	<path class="st0" d="M378.413,0H208.297h-13.182L185.8,9.314L57.02,138.102l-9.314,9.314v13.176v265.514
		c0,47.36,38.528,85.895,85.896,85.895h244.811c47.353,0,85.881-38.535,85.881-85.895V85.896C464.294,38.528,425.766,0,378.413,0z
		 M432.497,426.105c0,29.877-24.214,54.091-54.084,54.091H133.602c-29.884,0-54.098-24.214-54.098-54.091V160.591h83.716
		c24.885,0,45.077-20.178,45.077-45.07V31.804h170.116c29.87,0,54.084,24.214,54.084,54.092V426.105z"/>
	<path class="st0" d="M225.334,251.968c-5.711,0-9.915,4.078-9.915,10.592v50.803c0,11.409-5.027,15.62-12.638,15.62
		c-2.988,0-6.102-0.95-8.281-2.444c-2.988-2.039-5.166-2.989-7.61-2.989c-5.027,0-8.826,3.666-8.826,8.42
		c0,2.444,0.95,4.888,2.723,6.927c3.798,4.35,12.763,7.743,21.324,7.743c21.184,0,33.278-11.954,33.278-34.639V262.56
		C235.389,256.046,231.171,251.968,225.334,251.968z"/>
	<path class="st0" d="M293.257,289.595l-4.888-0.684c-10.738-1.494-14.397-5.02-14.397-10.187c0-5.837,4.343-9.915,12.484-9.915
		c5.711,0,11.423,1.634,15.891,3.805c1.913,0.95,3.953,1.494,5.852,1.494c4.888,0,8.686-3.666,8.686-8.693
		c0-3.261-1.494-5.977-4.748-8.016c-5.432-3.394-15.627-6.11-25.806-6.11c-19.97,0-32.733,11.269-32.733,28.25
		c0,16.304,10.32,25.13,29.199,27.713l4.888,0.677c11.004,1.494,14.258,4.888,14.258,10.32c0,6.389-5.293,10.872-15.067,10.872
		c-6.801,0-12.234-1.767-19.83-5.977c-1.634-0.956-3.673-1.634-5.851-1.634c-5.153,0-8.965,3.938-8.965,8.832
		c0,3.254,1.634,6.382,4.762,8.42c6.116,3.799,16.031,7.876,29.06,7.876c24.047,0,36.266-12.358,36.266-29.067
		C322.317,300.865,312.403,292.311,293.257,289.595z"/>
</g>
</svg>